<?xml version="1.0" encoding="UTF-8"?>
<svg id="Layer_1" xmlns="http://www.w3.org/2000/svg" xmlns:xlink="http://www.w3.org/1999/xlink" version="1.1" viewBox="0 0 45.22 12.83">
  <!-- Generator: Adobe Illustrator 29.2.1, SVG Export Plug-In . SVG Version: 2.1.0 Build 116)  -->
  <defs>
    <style>
      .st0 {
        fill: none;
      }

      .st1 {
        fill: url(#linear-gradient);
      }

      .st2, .st3 {
        fill: #6b5a24;
      }

      .st3 {
        stroke: #6b5a24;
        stroke-miterlimit: 10;
        stroke-width: .1px;
      }
    </style>
    <linearGradient id="linear-gradient" x1="31.86" y1="5.53" x2="45.22" y2="5.53" gradientUnits="userSpaceOnUse">
      <stop offset="0" stop-color="#b495a7"/>
      <stop offset=".05" stop-color="#b8969d"/>
      <stop offset=".13" stop-color="#c69982"/>
      <stop offset=".24" stop-color="#db9f56"/>
      <stop offset=".37" stop-color="#f9a61a"/>
      <stop offset=".37" stop-color="#faa71a"/>
      <stop offset=".7" stop-color="#acb036"/>
      <stop offset="1" stop-color="#00b6d0"/>
    </linearGradient>
  </defs>
  <g>
    <path class="st0" d="M28.62,9.46c-.16-.14-.35-.26-.59-.34-.24-.08-.53-.13-.86-.13-.32,0-.59.04-.83.13-.24.08-.44.2-.6.34-.16.14-.29.31-.39.49-.09.19-.15.38-.18.59h3.94c-.01-.2-.06-.4-.14-.59-.08-.19-.2-.35-.35-.5Z"/>
    <path class="st0" d="M9.26,9.46c-.16-.14-.35-.26-.59-.34-.24-.08-.53-.13-.86-.13-.32,0-.59.04-.83.13-.24.08-.44.2-.6.34-.16.14-.29.31-.39.49-.09.19-.15.38-.18.59h3.94c-.01-.2-.06-.4-.14-.59-.08-.19-.2-.35-.35-.5Z"/>
    <path class="st0" d="M34.46,9.42c-.18-.15-.41-.26-.68-.34-.27-.08-.59-.12-.95-.12s-.67.04-.95.12c-.27.08-.5.19-.69.34s-.32.34-.42.56c-.09.22-.14.47-.14.75s.05.54.14.76c.09.22.23.4.42.55s.41.26.69.34c.27.08.59.12.95.12s.67-.04.95-.12c.27-.08.5-.19.68-.34.18-.15.32-.33.41-.55s.14-.47.14-.76-.05-.54-.14-.76-.23-.4-.41-.55Z"/>
    <polygon class="st3" points=".37 10.45 .37 8.71 0 8.71 0 12.75 .37 12.75 .37 10.78 .37 10.45"/>
    <polygon class="st3" points="3.98 10.45 .97 10.45 .97 10.78 3.98 10.78 3.98 12.75 4.35 12.75 4.35 8.71 3.98 8.71 3.98 10.45"/>
    <path class="st3" d="M9.51,9.23c-.2-.18-.44-.32-.72-.42-.29-.1-.61-.15-.98-.15s-.68.05-.97.15-.54.24-.75.43c-.21.18-.37.4-.49.66-.12.26-.17.54-.17.85s.06.6.18.86c.12.25.29.47.52.65.22.18.5.32.81.41.32.1.68.14,1.07.14.17,0,.33,0,.47-.02.14-.01.28-.03.42-.05.14-.02.28-.05.42-.09.14-.04.29-.08.46-.13v-.43c-.08.05-.18.1-.3.14-.12.05-.26.09-.41.12s-.3.06-.47.09c-.16.02-.32.03-.48.03-.37,0-.7-.04-.98-.11-.28-.08-.51-.18-.71-.33-.19-.14-.34-.31-.44-.51-.1-.2-.17-.43-.19-.68h4.31v-.09c0-.32-.05-.62-.15-.88-.1-.26-.25-.48-.45-.66ZM5.8,10.54c.02-.21.09-.4.18-.59.09-.19.22-.35.39-.49.16-.14.37-.25.6-.34.24-.08.51-.13.83-.13.34,0,.62.04.86.13.24.08.44.2.59.34.16.14.27.31.35.5.08.19.12.38.14.59h-3.94Z"/>
    <path class="st3" d="M14.6,8.95c-.19-.11-.41-.19-.66-.24-.25-.05-.53-.07-.82-.07-.35,0-.67.03-.98.08-.31.05-.6.12-.87.19v.43c.13-.05.26-.1.39-.14.13-.05.26-.08.41-.12.14-.03.29-.06.46-.08.16-.02.34-.03.54-.03.15,0,.29,0,.44.02s.29.03.42.06c.13.03.26.07.37.12s.21.11.3.18c.08.07.15.16.2.25.05.1.07.21.07.33v.31c-.38.02-.74.05-1.08.08-.34.03-.66.07-.95.12-.29.05-.56.11-.8.18-.24.07-.44.16-.61.26-.17.1-.3.22-.39.36-.09.14-.14.3-.14.48s.04.34.12.48c.08.14.19.25.33.35.15.09.32.16.53.21.21.05,2.04.07,2.3.07.01,0,.02,0,.03,0v-.33c-.18,0-1.96-.01-2.11-.04-.18-.03-.33-.09-.45-.15-.12-.07-.22-.15-.28-.25-.07-.1-.1-.22-.1-.34,0-.16.07-.3.2-.43.13-.13.35-.23.63-.33.29-.09.66-.17,1.11-.24.45-.07,1-.12,1.64-.15v2.27h.36v-2.81c0-.25-.05-.46-.16-.63-.11-.17-.26-.32-.44-.42Z"/>
    <path class="st3" d="M17.53,12.33c-.18-.04-.31-.1-.41-.19-.09-.08-.16-.19-.18-.32-.03-.13-.04-.29-.04-.47v-2.64h-.37v2.71c0,.23.02.43.07.59.05.17.14.3.26.41.12.11.29.19.5.24.21.05.48.08.8.08h1.9v-.36h-1.82c-.29,0-.53-.02-.71-.06Z"/>
    <path class="st3" d="M21.8,12.33c-.18-.04-.31-.1-.41-.19-.09-.08-.16-.19-.18-.32-.03-.13-.04-.29-.04-.47v-2.64h-.37v2.71c0,.23.02.43.07.59.05.17.14.3.26.41.12.11.29.19.5.24.21.05.48.08.8.08h1.9v-.36h-1.82c-.29,0-.53-.02-.71-.06Z"/>
    <path class="st3" d="M28.87,9.23c-.2-.18-.44-.32-.72-.42-.29-.1-.61-.15-.98-.15s-.68.05-.97.15-.54.24-.75.43-.37.4-.49.66c-.12.26-.17.54-.17.85s.06.6.18.86c.12.25.29.47.52.65.22.18.5.32.81.41.32.1.68.14,1.07.14.17,0,.33,0,.47-.02.14-.01.28-.03.42-.05.14-.02.28-.05.42-.09.14-.04.29-.08.46-.13v-.43c-.08.05-.18.1-.3.14-.12.05-.26.09-.41.12s-.3.06-.47.09c-.16.02-.32.03-.48.03-.37,0-.7-.04-.98-.11-.28-.08-.51-.18-.71-.33-.19-.14-.34-.31-.44-.51-.1-.2-.17-.43-.19-.68h4.31v-.09c0-.32-.05-.62-.15-.88-.1-.26-.25-.48-.45-.66ZM25.16,10.54c.02-.21.08-.4.18-.59.09-.19.22-.35.39-.49.16-.14.37-.25.6-.34.24-.08.51-.13.83-.13.34,0,.62.04.86.13.24.08.44.2.59.34.16.14.27.31.35.5.08.19.12.38.14.59h-3.94Z"/>
    <path class="st3" d="M35.19,9.79c-.13-.26-.31-.48-.54-.65s-.5-.3-.81-.38c-.31-.08-.65-.12-1.01-.12-.24,0-.47.02-.69.05s-.42.09-.62.17c-.19.08-.36.17-.52.28-.16.11-.29.25-.4.4-.11.16-.19.33-.26.53-.06.2-.09.41-.09.66,0,.36.07.68.2.94s.31.48.54.65c.23.17.5.3.82.38.31.08.65.12,1.01.12s.7-.04,1.01-.12c.31-.08.58-.21.81-.38.23-.17.41-.39.54-.65.13-.26.2-.58.2-.94s-.07-.68-.2-.94ZM34.87,11.49c-.09.22-.23.4-.41.55-.18.15-.41.26-.68.34-.27.08-.59.12-.95.12s-.67-.04-.95-.12c-.27-.08-.5-.19-.69-.34s-.32-.33-.42-.55c-.09-.22-.14-.47-.14-.76s.05-.53.14-.75c.09-.22.23-.41.42-.56s.41-.26.69-.34c.27-.08.59-.12.95-.12s.67.04.95.12c.27.08.5.19.68.34.18.15.32.33.41.55s.14.47.14.76-.05.54-.14.76Z"/>
  </g>
  <path class="st2" d="M35.93,12.33h-.15v.48h-.13v-.48h-.15v-.1h.43v.1ZM36.46,12.41l-.13.4h-.07l-.13-.4v.4h-.12v-.58h.15l.14.41.14-.41h.14v.58h-.12v-.4Z"/>
  <path class="st1" d="M44.62,2.45c-.57-.33-1.31-.13-1.64.44-.12.2-.16.42-.16.64h0s0,0,0,.01c0,.02,0,.04,0,.05,0,.2.05.38.11.55.14.36.1.86-.16,1.31-.26.45-.67.74-1.05.8-.12.03-.24.06-.35.11-.09.02-.19.05-.28.08-.36.14-.86.1-1.31-.16-.45-.26-.74-.67-.8-1.05-.04-.16-.08-.32-.16-.48,0,0,0-.02-.01-.03,0-.01,0-.02-.01-.03,0-.02-.02-.03-.02-.04,0,0,0,0,0-.01h0s0,0,0,0c0,0,0-.01,0-.02-.02-.04-.05-.07-.08-.1-.04-.05-.07-.11-.11-.15-.02-.02-.04-.03-.05-.04-.06-.06-.13-.12-.2-.16-.02-.01-.04-.01-.07-.02,0,0,0,0,0,0-.04-.02-.08-.04-.13-.05-.14-.06-.28-.1-.42-.13-.38-.05-.79-.34-1.05-.8-.26-.45-.31-.95-.16-1.31.05-.16.09-.32.1-.49,0,0,0-.02,0-.03,0-.01,0-.02,0-.04,0-.02,0-.03,0-.05,0,0,0,0,0-.01h0c0-.11,0-.22-.04-.33,0-.02-.02-.04-.02-.05-.03-.08-.05-.17-.1-.25-.01-.02-.04-.04-.05-.06-.04-.07-.1-.12-.16-.18-.06-.06-.11-.12-.18-.16-.02-.01-.03-.04-.05-.05-.05-.03-.1-.03-.14-.05-.08-.03-.15-.06-.23-.08-.08-.01-.15-.02-.23-.02-.08,0-.15,0-.23.02-.08.02-.15.04-.23.08-.05.02-.1.02-.15.05-.02.01-.03.04-.06.05-.07.04-.12.1-.18.16-.06.06-.12.11-.16.18-.01.02-.04.03-.05.05-.04.08-.07.16-.1.24,0,.02-.02.04-.02.06-.03.11-.04.22-.04.33h0s0,0,0,.01c0,.02,0,.04,0,.05,0,.01,0,.02,0,.03,0,0,0,.02,0,.02.01.17.05.33.1.49.14.36.1.86-.16,1.31-.26.45-.67.74-1.05.8-.18.04-.36.09-.53.18-.02,0-.03.02-.04.02,0,0,0,0-.01,0h0c-.19.1-.36.25-.47.45-.33.58-.13,1.31.44,1.64s1.31.13,1.64-.44c.12-.2.16-.42.16-.64h0s0,0,0-.01c0-.02,0-.04,0-.05,0-.2-.06-.39-.12-.58-.14-.36-.09-.84.17-1.29.27-.46.69-.75,1.08-.8.01,0,.03,0,.04.01.38.06.77.35,1.03.79.27.47.31.98.15,1.34-.04.13-.07.26-.08.4,0,.04-.01.08-.01.12,0,0,0,0,0,0,0,0,0,.02,0,.02,0,.02-.01.04-.01.06,0,.09.02.18.04.26,0,.02,0,.04,0,.06.02.05.04.1.06.15.02.05.03.1.06.14,0,0,.01.01.01.02,0,0,0,0,0,0,0,.02.02.03.03.05,0,0,.01.01.02.02.01.02.03.04.05.05.09.13.19.25.31.35.3.24.51.69.51,1.21s-.21.98-.51,1.21c-.12.11-.22.22-.31.36-.01.02-.03.03-.04.05,0,0-.01.01-.02.02,0,.01-.02.03-.03.04,0,0,0,0,0,.01h0c-.06.1-.1.2-.14.31,0,.02,0,.04,0,.05-.02.09-.04.17-.04.27,0,.03.01.05.02.07,0,.08.03.15.05.23.02.08.04.16.08.23.01.02.01.05.02.07.03.05.07.07.1.11.05.06.1.13.16.18.06.05.12.09.19.13.07.04.13.07.2.1.08.03.16.04.24.05.05,0,.09.03.15.03.03,0,.05-.01.07-.01.08,0,.16-.03.24-.05.08-.02.15-.04.22-.07.02-.01.05-.01.07-.02.08-.05.15-.11.21-.17.01-.01.03-.02.04-.03.08-.08.15-.17.2-.27h0s0,0,0-.01c0-.02.02-.03.03-.05,0-.01,0-.02.01-.04,0,0,0-.01,0-.02.08-.16.12-.32.16-.48.05-.38.34-.79.8-1.05.45-.26.95-.31,1.31-.16.14.04.28.08.42.09.02,0,.05,0,.07.01,0,0,.01,0,.02,0,.01,0,.02,0,.04,0,.02,0,.03,0,.05,0,0,0,0,0,.01,0h0c.11,0,.22-.01.33-.04.02,0,.04-.02.05-.02.08-.03.17-.05.25-.1.02-.01.03-.04.06-.05.07-.04.12-.1.18-.16.06-.06.12-.11.16-.18.01-.02.04-.03.05-.05.03-.05.03-.1.05-.14.03-.08.06-.15.08-.23.01-.08.02-.15.02-.23,0-.08,0-.15-.02-.23-.01-.06-.03-.12-.06-.18-.02-.09-.05-.18-.07-.26-.14-.36-.09-.84.17-1.29.27-.47.69-.76,1.09-.8.17-.04.34-.09.5-.17.02,0,.03-.02.04-.02,0,0,0,0,.01,0h0c.19-.1.36-.25.47-.45.33-.57.13-1.31-.44-1.64ZM39.67,8.6c-.46.27-.97.31-1.33.15-.01-.01-.02-.02-.03-.03-.3-.24-.5-.69-.5-1.2s.22-.99.53-1.23c.01,0,.03,0,.04-.01.36-.14.85-.09,1.29.17.46.27.75.69.8,1.08,0,.01,0,.03-.01.04-.06.38-.35.77-.79,1.03Z"/>
</svg>