<?xml version="1.0" encoding="UTF-8"?>
<svg xmlns="http://www.w3.org/2000/svg" version="1.1" viewBox="0 0 144 144">
  <!-- Generator: Adobe Illustrator 29.2.1, SVG Export Plug-In . SVG Version: 2.1.0 Build 116)  -->
  <defs>
    <style>
      .st0 {
        mix-blend-mode: multiply;
        opacity: .97;
      }

      .st1 {
        isolation: isolate;
      }

      .st2 {
        fill: #a9ab36;
      }
    </style>
  </defs>
  <g class="st1">
    <g id="Layer_1">
      <g class="st0">
        <path class="st2" d="M80.62,79.68c.63,0,1.15-.52,1.15-1.15s-.52-1.15-1.15-1.15h-19.67c-1.64,0-2.98-1.34-2.98-2.98s1.34-2.98,2.98-2.98h22.11c.31,0,.61-.14.84-.37.21-.22.32-.49.31-.76-.03-.65-.52-1.16-1.13-1.17h-19.75c-1.64,0-2.98-1.34-2.98-2.98s1.34-2.98,2.98-2.98h12.25c.63,0,1.15-.52,1.15-1.15v-9.4s0-.24,0-.24c-1.52-.36-3.1-.56-4.72-.56-11.14,0-20.18,9.03-20.18,20.18,0,8.8,5.64,16.29,13.51,19.04v-8.38c0-1.64,1.34-2.98,2.98-2.98h12.31Z"/>
        <path class="st2" d="M78.55,52.92v9.1c0,1.64-1.33,2.98-2.98,2.98h-12.25c-.63,0-1.15.52-1.15,1.15s.52,1.15,1.15,1.15h19.78c1.58.03,2.86,1.31,2.93,2.92.03.77-.26,1.52-.82,2.1-.57.59-1.36.93-2.16.93h-22.11c-.63,0-1.15.52-1.15,1.15s.52,1.15,1.15,1.15h19.67c1.64,0,2.98,1.34,2.98,2.98s-1.34,2.98-2.98,2.98h-12.31c-.63,0-1.15.52-1.15,1.15v8.93c1.55.38,3.17.59,4.84.59,11.14,0,20.18-9.03,20.18-20.18,0-8.85-5.7-16.36-13.63-19.08Z"/>
      </g>
    </g>
  </g>
</svg>