<?xml version="1.0" encoding="UTF-8"?>
<svg id="Layer_1" xmlns="http://www.w3.org/2000/svg" version="1.1" viewBox="8 18 100 82">
  <!-- Generator: Adobe Illustrator 29.2.1, SVG Export Plug-In . SVG Version: 2.1.0 Build 116)  -->
  <defs>
    <style>
      .st0 {
        fill: #f4a81d;
      }

      .st1 {
        fill: #fff;
      }

      .st2 {
        opacity: .97;
      }
    </style>
  </defs>
  <g class="st2">
    <path class="st0" d="M72,51.82c-11.14,0-20.18,9.03-20.18,20.18s9.03,20.18,20.18,20.18,20.18-9.03,20.18-20.18-9.03-20.18-20.18-20.18Z"/>
  </g>
  <path class="st1" d="M80.39,61.93c-1.01-.52-2.15-.62-3.22-.27s-1.95,1.08-2.47,2.09l-2.4,4.64,1.02,1.84,2.94-5.68c.3-.59.81-1.02,1.44-1.21.62-.21,1.3-.15,1.88.16,1.21.62,1.68,2.11,1.06,3.32l-4.87,9.42-2.98-5.76-3.48-6.73c-.52-1.01-1.39-1.75-2.47-2.09s-2.21-.24-3.22.27c-1,.52-1.74,1.4-2.08,2.47s-.24,2.22.27,3.21l5.65,10.94,4.54,8.79,1.07-1.76-4.05-7.83-5.65-10.94c-.62-1.21-.15-2.7,1.05-3.32.58-.3,1.25-.36,1.88-.16.63.2,1.14.62,1.44,1.21l3.48,6.73,4.55,8.79,6.44-12.45c1.06-2.06.25-4.62-1.81-5.68Z"/>
</svg>