<?xml version="1.0" encoding="UTF-8"?>
<svg id="Layer_1" xmlns="http://www.w3.org/2000/svg" version="1.1" viewBox="8 10 105 100">
  <!-- Generator: Adobe Illustrator 29.2.1, SVG Export Plug-In . SVG Version: 2.1.0 Build 116)  -->
  <defs>
    <style>
      .st0 {
        fill: none;
        stroke: #fff;
        stroke-miterlimit: 10;
        stroke-width: 1.76px;
      }

      .st1 {
        opacity: .97;
      }

      .st2 {
        fill: #00bbd3;
      }
    </style>
  </defs>
  <g class="st1">
    <path class="st2" d="M72,51.82c-11.14,0-20.18,9.03-20.18,20.18s9.03,20.18,20.18,20.18,20.18-9.03,20.18-20.18-9.03-20.18-20.18-20.18Z"/>
  </g>
  <g>
    <g>
      <path class="st0" d="M60.88,77.12v-12.14c0-.84.68-1.52,1.52-1.52h0c.84,0,1.52.68,1.52,1.52v14.43"/>
      <path class="st0" d="M59.34,66.96c-.84,0-1.52.68-1.52,1.52v9.01"/>
      <path class="st0" d="M60.86,64.69v12.79c0,.84-.68,1.52-1.52,1.52h0c-.84,0-1.52-.68-1.52-1.52"/>
      <path class="st0" d="M66.97,73.34v5.98c0,.84-.68,1.52-1.52,1.52h0c-.84,0-1.52-.68-1.52-1.52"/>
      <path class="st0" d="M75.66,71.6h-7.17c-.84,0-1.52.68-1.52,1.52v6.03"/>
    </g>
    <g>
      <path class="st0" d="M83.12,66.88v12.14c0,.84-.68,1.52-1.52,1.52h0c-.84,0-1.52-.68-1.52-1.52v-14.43"/>
      <path class="st0" d="M84.66,77.04c.84,0,1.52-.68,1.52-1.52v-9.01"/>
      <path class="st0" d="M83.14,79.31v-12.79c0-.84.68-1.52,1.52-1.52h0c.84,0,1.52.68,1.52,1.52"/>
      <path class="st0" d="M77.03,69.97v-5.29c0-.84.68-1.52,1.52-1.52h0c.84,0,1.52.68,1.52,1.52"/>
      <path class="st0" d="M68.34,71.63h7.17c.84,0,1.52-.68,1.52-1.52v-5.27"/>
    </g>
  </g>
</svg>